<svg width="92" height="56" viewBox="0 0 92 56" fill="none" xmlns="http://www.w3.org/2000/svg">
<g clip-path="url(#clip0)">
<path d="M45.2093 56.0207C44.9031 56.016 44.6036 55.9304 44.3411 55.7726L41.5917 54.1395C41.1783 53.9121 41.385 53.8295 41.5091 53.7881C41.9452 53.6482 42.362 53.4537 42.7494 53.2093C42.7826 53.1942 42.8192 53.1882 42.8555 53.1918C42.8918 53.1954 42.9265 53.2086 42.9561 53.23L45.0646 54.4703C45.1055 54.4939 45.1518 54.5063 45.199 54.5063C45.2461 54.5063 45.2925 54.4939 45.3333 54.4703L53.6021 49.7158C53.6336 49.6912 53.6592 49.6598 53.6771 49.6241C53.695 49.5883 53.7047 49.549 53.7054 49.509V39.9587C53.7023 39.9169 53.6894 39.8765 53.6679 39.8406C53.6464 39.8047 53.6168 39.7744 53.5814 39.7519L45.3127 34.9974C45.2775 34.9793 45.2385 34.9698 45.199 34.9698C45.1594 34.9698 45.1204 34.9793 45.0853 34.9974L36.8165 39.7519C36.7812 39.7744 36.7516 39.8047 36.73 39.8406C36.7085 39.8765 36.6957 39.9169 36.6925 39.9587V49.4884C36.6902 49.534 36.7006 49.5794 36.7225 49.6195C36.7444 49.6597 36.7769 49.693 36.8165 49.7158L39.0904 51.0181C40.3308 51.6382 41.0749 50.9147 41.0749 50.1912V40.7855C41.0721 40.754 41.0758 40.7222 41.0859 40.6922C41.0961 40.6621 41.1124 40.6346 41.1338 40.6112C41.1552 40.5878 41.1812 40.5692 41.2103 40.5565C41.2393 40.5438 41.2707 40.5373 41.3023 40.5375H42.3359C42.3693 40.5343 42.403 40.5385 42.4345 40.5498C42.4661 40.5612 42.4947 40.5793 42.5184 40.603C42.5421 40.6267 42.5603 40.6554 42.5716 40.6869C42.583 40.7185 42.5872 40.7522 42.584 40.7855V50.1912C42.584 51.845 41.6951 52.7752 40.1447 52.7752C39.6693 52.7752 39.2972 52.7752 38.2429 52.2584L36.0724 51.0181C35.809 50.8637 35.5905 50.6433 35.4382 50.3787C35.286 50.114 35.2053 49.8143 35.2041 49.509V39.9793C35.2032 39.6736 35.283 39.3731 35.4355 39.1081C35.5879 38.8432 35.8076 38.6231 36.0724 38.4703L44.3411 33.6951C44.605 33.5539 44.8997 33.4801 45.199 33.4801C45.4983 33.4801 45.7929 33.5539 46.0569 33.6951L54.3256 38.4496C54.5934 38.6042 54.8151 38.8275 54.9677 39.0964C55.1204 39.3653 55.1984 39.6701 55.1938 39.9793V49.4884C55.1948 49.7917 55.1172 50.09 54.9687 50.3545C54.8202 50.6189 54.6058 50.8404 54.3463 50.9974L46.0775 55.7726C45.813 55.9232 45.5136 56.0016 45.2093 56V56.0207Z" fill="#679E63"/>
<path d="M47.7519 49.447C44.1344 49.447 43.3695 47.7933 43.3695 46.3876C43.3694 46.3559 43.3759 46.3246 43.3886 46.2955C43.4013 46.2665 43.4199 46.2404 43.4432 46.219C43.4666 46.1976 43.4942 46.1813 43.5242 46.1712C43.5542 46.1611 43.586 46.1573 43.6176 46.1602H44.6925C44.7494 46.16 44.8043 46.1811 44.8464 46.2193C44.8885 46.2576 44.9147 46.3103 44.9199 46.3669C45.0853 47.4419 45.5607 48 47.7519 48C49.4884 48 50.2326 47.5866 50.2326 46.677C50.2326 46.1395 50.0258 45.7468 47.3178 45.478C45.0439 45.2713 43.6589 44.7545 43.6589 42.9561C43.6589 41.3023 45.0646 40.2894 47.4212 40.2894C50.0672 40.2894 51.3695 41.2196 51.5555 43.1835C51.5606 43.2221 51.5557 43.2614 51.5412 43.2976C51.5268 43.3338 51.5032 43.3657 51.4729 43.3902C51.4272 43.4304 51.3684 43.4525 51.3075 43.4522H50.2326C50.1757 43.4524 50.1208 43.4313 50.0787 43.3931C50.0366 43.3548 50.0103 43.3021 50.0052 43.2455C49.7364 42.1085 49.1163 41.7571 47.4212 41.7571C45.5194 41.7571 45.292 42.4186 45.292 42.9147C45.292 43.5142 45.5607 43.6796 48.124 44.031C50.6873 44.3824 51.8656 44.8372 51.8656 46.615C51.8656 48.3928 50.3773 49.447 47.7313 49.447H47.7519ZM59.6589 39.4419C59.6589 39.7567 59.5656 40.0644 59.3906 40.3262C59.2157 40.5879 58.9672 40.792 58.6763 40.9124C58.3855 41.0329 58.0654 41.0644 57.7566 41.003C57.4479 40.9416 57.1643 40.79 56.9417 40.5674C56.719 40.3448 56.5674 40.0612 56.506 39.7524C56.4446 39.4436 56.4761 39.1236 56.5966 38.8327C56.7171 38.5419 56.9211 38.2933 57.1829 38.1184C57.4446 37.9435 57.7524 37.8501 58.0672 37.8501C58.4893 37.8501 58.8942 38.0178 59.1927 38.3163C59.4912 38.6148 59.6589 39.0197 59.6589 39.4419ZM56.7235 39.4419C56.7194 39.7085 56.7947 39.9702 56.9398 40.1939C57.085 40.4176 57.2934 40.593 57.5385 40.6979C57.7836 40.8028 58.0544 40.8323 58.3164 40.7829C58.5784 40.7334 58.8198 40.607 59.0097 40.42C59.1997 40.2329 59.3298 39.9936 59.3833 39.7324C59.4369 39.4712 59.4115 39.1999 59.3104 38.9532C59.2094 38.7065 59.0372 38.4954 58.8158 38.3468C58.5944 38.1982 58.3338 38.1189 58.0672 38.1189C57.7144 38.1188 57.3757 38.2575 57.1243 38.5051C56.8729 38.7526 56.7289 39.0891 56.7235 39.4419ZM57.4677 38.553H58.0878C58.2946 38.553 58.708 38.553 58.708 39.0284C58.715 39.1286 58.6853 39.2279 58.6244 39.3078C58.5636 39.3877 58.4757 39.4427 58.3773 39.4625C58.6046 39.4625 58.6253 39.6486 58.6667 39.876C58.6722 40.0375 58.7001 40.1975 58.7493 40.3514H58.3773L58.3152 39.7933C58.2946 39.6899 58.2532 39.6279 58.1085 39.6279H57.8191V40.3514H57.4677V38.553ZM57.7984 39.3385H58.0878C58.1221 39.3414 58.1566 39.3371 58.1891 39.3259C58.2217 39.3147 58.2515 39.2969 58.2768 39.2736C58.302 39.2502 58.3222 39.2219 58.3359 39.1904C58.3497 39.1589 58.3567 39.1248 58.3566 39.0904C58.3566 38.8424 58.1912 38.8424 58.0878 38.8424H57.7984V39.3385Z" fill="#679E63"/>
<path fill-rule="evenodd" clip-rule="evenodd" d="M19.6382 18.708C19.6366 18.5225 19.586 18.3407 19.4917 18.181C19.3973 18.0213 19.2625 17.8894 19.1008 17.7985L10.3359 12.7545C10.1894 12.6763 10.0265 12.6338 9.86047 12.6305H9.75711C9.59117 12.6346 9.42844 12.677 9.28165 12.7545L0.537467 17.7985C0.372721 17.8911 0.235908 18.0263 0.141353 18.19C0.0467968 18.3536 -0.00202455 18.5397 -5.69173e-07 18.7287V32.2894C0.00171882 32.3845 0.0296475 32.4773 0.0807101 32.5575C0.131773 32.6378 0.203988 32.7024 0.289405 32.7442C0.367968 32.7895 0.457086 32.8134 0.547803 32.8134C0.63852 32.8134 0.727638 32.7895 0.806201 32.7442L6.0155 29.7674C6.17881 29.6732 6.31445 29.5376 6.40878 29.3743C6.50312 29.211 6.55285 29.0258 6.55297 28.8372V22.5323C6.55252 22.3488 6.59996 22.1684 6.6906 22.0089C6.78123 21.8494 6.91193 21.7163 7.06977 21.6227L9.30233 20.3204C9.45922 20.2284 9.63726 20.1786 9.81912 20.1757C10.0081 20.1739 10.194 20.2239 10.3566 20.3204L12.5685 21.6021C12.7263 21.6956 12.857 21.8287 12.9476 21.9882C13.0383 22.1477 13.0857 22.3282 13.0853 22.5116V28.8372C13.0875 29.0278 13.1403 29.2144 13.2384 29.3779C13.3365 29.5414 13.4762 29.6758 13.6434 29.7674L18.8114 32.7442C18.8923 32.7935 18.9853 32.8196 19.0801 32.8196C19.1749 32.8196 19.2679 32.7935 19.3488 32.7442C19.429 32.6979 19.4958 32.6318 19.5429 32.5521C19.59 32.4724 19.6157 32.3819 19.6176 32.2894L19.6382 18.708ZM61.7468 0.062013C61.665 0.0194435 61.5736 -0.00135352 61.4814 0.00162272C61.3892 0.00459895 61.2993 0.0312483 61.2204 0.0790069C61.1415 0.126766 61.0762 0.194026 61.0308 0.274318C60.9854 0.354611 60.9615 0.445232 60.9612 0.537465V13.9742C60.9571 14.0395 60.9358 14.1025 60.8995 14.1569C60.8632 14.2114 60.8132 14.2553 60.7545 14.2842C60.7005 14.3132 60.6401 14.3283 60.5788 14.3283C60.5175 14.3283 60.4571 14.3132 60.4031 14.2842L58.2119 13.0233C58.0541 12.9345 57.8761 12.8879 57.6951 12.8879C57.5141 12.8879 57.3361 12.9345 57.1783 13.0233L48.3721 18.0879C48.2128 18.1798 48.081 18.3125 47.9901 18.4724C47.8993 18.6323 47.8527 18.8135 47.8553 18.9974V29.1059C47.8569 29.2914 47.9075 29.4732 48.0019 29.6329C48.0962 29.7926 48.2311 29.9246 48.3928 30.0155L57.137 35.0801C57.2972 35.1726 57.479 35.2214 57.6641 35.2214C57.8492 35.2214 58.031 35.1726 58.1912 35.0801L66.9561 30.0155C67.1178 29.9246 67.2526 29.7926 67.347 29.6329C67.4413 29.4732 67.4919 29.2914 67.4935 29.1059V3.8863C67.4898 3.69875 67.4362 3.51558 67.3381 3.35569C67.2399 3.1958 67.1009 3.06498 66.9354 2.97674L61.7468 0.062013ZM60.9199 25.7778C60.9201 25.8231 60.9088 25.8677 60.8871 25.9074C60.8654 25.9472 60.834 25.9808 60.7959 26.0052L57.7985 27.7416C57.7576 27.7652 57.7113 27.7776 57.6641 27.7776C57.6169 27.7776 57.5706 27.7652 57.5297 27.7416L54.5323 26.0052C54.4931 25.9852 54.4594 25.9559 54.4342 25.9199C54.4089 25.8838 54.393 25.8421 54.3876 25.7985V22.3049C54.3908 22.2632 54.4036 22.2228 54.4251 22.1869C54.4467 22.151 54.4763 22.1206 54.5116 22.0982L57.5297 20.3411C57.5706 20.3175 57.6169 20.3051 57.6641 20.3051C57.7113 20.3051 57.7576 20.3175 57.7985 20.3411L60.7959 22.0775C60.8379 22.0993 60.8734 22.1318 60.8988 22.1718C60.9242 22.2117 60.9386 22.2576 60.9406 22.3049L60.9199 25.7778ZM90.9147 22.2222C91.0764 22.1313 91.2113 21.9993 91.3056 21.8396C91.4 21.6799 91.4506 21.4982 91.4522 21.3127V18.8527C91.4506 18.6672 91.4 18.4855 91.3056 18.3258C91.2113 18.1661 91.0764 18.0341 90.9147 17.9432L82.2119 12.8786C82.0516 12.786 81.8698 12.7373 81.6848 12.7373C81.4997 12.7373 81.3179 12.786 81.1576 12.8786L72.3928 17.9432C72.2335 18.0351 72.1016 18.1678 72.0108 18.3277C71.92 18.4876 71.8734 18.6688 71.876 18.8527V28.9819C71.8776 29.1674 71.9282 29.3492 72.0226 29.5089C72.1169 29.6686 72.2518 29.8006 72.4134 29.8915L81.0956 34.8527C81.2534 34.9415 81.4314 34.9881 81.6124 34.9881C81.7934 34.9881 81.9714 34.9415 82.1292 34.8527L87.4005 31.9173C87.4821 31.8701 87.5498 31.8023 87.5968 31.7206C87.6439 31.639 87.6687 31.5464 87.6687 31.4522C87.6687 31.358 87.6439 31.2654 87.5968 31.1838C87.5498 31.1021 87.4821 31.0343 87.4005 30.9871L78.5943 25.9432C78.5142 25.8969 78.4473 25.8307 78.4002 25.7511C78.3531 25.6714 78.3274 25.5809 78.3256 25.4884V22.3256C78.3253 22.2326 78.3502 22.1413 78.3975 22.0613C78.4448 21.9812 78.5128 21.9154 78.5943 21.8708L81.3437 20.2791C81.4222 20.2337 81.5114 20.2098 81.6021 20.2098C81.6928 20.2098 81.7819 20.2337 81.8605 20.2791L84.6098 21.8708C84.6914 21.9154 84.7594 21.9812 84.8067 22.0613C84.854 22.1413 84.8788 22.2326 84.8786 22.3256V24.8062C84.8761 24.8991 84.8988 24.9909 84.9441 25.0719C84.9895 25.153 85.0559 25.2204 85.1362 25.2669C85.2166 25.3135 85.3081 25.3375 85.401 25.3364C85.4939 25.3354 85.5848 25.3093 85.6641 25.261L90.9147 22.2222Z" fill="#333333"/>
<path fill-rule="evenodd" clip-rule="evenodd" d="M81.5504 21.7468C81.5818 21.7286 81.6175 21.7191 81.6538 21.7191C81.69 21.7191 81.7257 21.7286 81.7571 21.7468L83.4522 22.7183C83.4817 22.7353 83.5066 22.7592 83.5246 22.7881C83.5426 22.8169 83.5533 22.8498 83.5556 22.8837V24.8269C83.5568 24.8643 83.5479 24.9014 83.5297 24.9342C83.5115 24.967 83.4847 24.9942 83.4522 25.0129L81.7778 25.9845C81.7464 26.0026 81.7107 26.0122 81.6744 26.0122C81.6381 26.0122 81.6025 26.0026 81.5711 25.9845L79.876 25.0129C79.8473 24.9917 79.8246 24.9634 79.8101 24.9308C79.7957 24.8982 79.7898 24.8624 79.7933 24.8269V22.8837C79.7933 22.8516 79.8008 22.82 79.8151 22.7913C79.8295 22.7626 79.8503 22.7376 79.876 22.7183L81.5504 21.7468Z" fill="#679E63"/>
<path fill-rule="evenodd" clip-rule="evenodd" d="M34.2739 12.9406C34.1168 12.8499 33.9386 12.8021 33.7571 12.8021C33.5757 12.8021 33.3975 12.8499 33.2403 12.9406L24.4961 17.9845C24.3369 18.0764 24.205 18.2092 24.1142 18.3691C24.0233 18.529 23.9768 18.7102 23.9793 18.8941V28.9406C23.9768 29.1244 24.0233 29.3057 24.1142 29.4656C24.205 29.6254 24.3369 29.7582 24.4961 29.8501L33.199 34.8734C33.3561 34.9641 33.5343 35.0119 33.7158 35.0119C33.8972 35.0119 34.0754 34.9641 34.2326 34.8734L42.9561 29.8501C43.1192 29.7609 43.2552 29.6293 43.3498 29.4692C43.4444 29.3091 43.4941 29.1265 43.4936 28.9406V18.8734C43.4941 18.6875 43.4444 18.5048 43.3498 18.3447C43.2552 18.1847 43.1192 18.0531 42.9561 17.9638L34.2739 12.9406Z" fill="url(#paint0_linear)"/>
<path d="M42.9974 17.9845L34.2739 12.9406C34.1896 12.8938 34.0991 12.859 34.0052 12.8372L24.186 29.6021C24.2691 29.6992 24.3668 29.7829 24.4754 29.8501L33.2403 34.8734C33.4851 35.012 33.7746 35.0491 34.0465 34.9768L43.2455 18.1499C43.1709 18.0777 43.0876 18.0152 42.9974 17.9638V17.9845Z" fill="url(#paint1_linear)"/>
<path d="M32.9302 11.0801L32.8062 11.1628H32.9716L32.9302 11.0801Z" fill="url(#paint2_linear)"/>
<path d="M42.9974 29.8501C43.1228 29.7793 43.233 29.6844 43.3217 29.5708C43.4103 29.4573 43.4758 29.3275 43.5142 29.1886L33.9431 12.8165C33.6882 12.7666 33.4239 12.8107 33.1989 12.9406L24.5374 17.9432L33.9018 35.0181C34.0409 34.9961 34.1744 34.9469 34.2946 34.8734L42.9974 29.8501Z" fill="url(#paint3_linear)"/>
<path d="M43.8243 29.6848L43.7623 29.5814V29.7261L43.8243 29.6848Z" fill="url(#paint4_linear)"/>
<path d="M42.9974 29.8501L34.2946 34.8734C34.1744 34.9469 34.0409 34.9961 33.9018 35.0181L34.0672 35.3282L43.7623 29.7261V29.5814L43.5142 29.168C43.4782 29.3105 43.4139 29.4444 43.3252 29.5616C43.2364 29.6788 43.1249 29.7769 42.9974 29.8501Z" fill="url(#paint5_linear)"/>
<path d="M42.9974 29.8501L34.2946 34.8734C34.1744 34.9469 34.0409 34.9961 33.9018 35.0181L34.0672 35.3282L43.7623 29.7261V29.5814L43.5142 29.168C43.4782 29.3105 43.4139 29.4444 43.3252 29.5616C43.2364 29.6788 43.1249 29.7769 42.9974 29.8501Z" fill="url(#paint6_linear)"/>
</g>
<defs>
<linearGradient id="paint0_linear" x1="37.292" y1="16.6822" x2="29.416" y2="32.7442" gradientUnits="userSpaceOnUse">
<stop stop-color="#3F873F"/>
<stop offset="0.3" stop-color="#3F8B3D"/>
<stop offset="0.6" stop-color="#3E9637"/>
<stop offset="0.9" stop-color="#3DA92E"/>
<stop offset="1" stop-color="#3DAE2B"/>
</linearGradient>
<linearGradient id="paint1_linear" x1="32.4341" y1="25.0749" x2="54.5116" y2="8.76486" gradientUnits="userSpaceOnUse">
<stop offset="0.1" stop-color="#3F873F"/>
<stop offset="0.4" stop-color="#529F44"/>
<stop offset="0.7" stop-color="#63B649"/>
<stop offset="0.9" stop-color="#6ABF4B"/>
</linearGradient>
<linearGradient id="paint2_linear" x1="23.6897" y1="11.1215" x2="43.8245" y2="11.1215" gradientUnits="userSpaceOnUse">
<stop offset="0.1" stop-color="#6ABF4B"/>
<stop offset="0.3" stop-color="#63B649"/>
<stop offset="0.6" stop-color="#529F44"/>
<stop offset="0.9" stop-color="#3F873F"/>
</linearGradient>
<linearGradient id="paint3_linear" x1="2204.97" y1="2583.84" x2="4053.3" y2="2583.84" gradientUnits="userSpaceOnUse">
<stop offset="0.1" stop-color="#6ABF4B"/>
<stop offset="0.3" stop-color="#63B649"/>
<stop offset="0.6" stop-color="#529F44"/>
<stop offset="0.9" stop-color="#3F873F"/>
</linearGradient>
<linearGradient id="paint4_linear" x1="50.8692" y1="50.3318" x2="56.9096" y2="50.3318" gradientUnits="userSpaceOnUse">
<stop offset="0.1" stop-color="#6ABF4B"/>
<stop offset="0.3" stop-color="#63B649"/>
<stop offset="0.6" stop-color="#529F44"/>
<stop offset="0.9" stop-color="#3F873F"/>
</linearGradient>
<linearGradient id="paint5_linear" x1="1166.87" y1="990.16" x2="2127.28" y2="990.16" gradientUnits="userSpaceOnUse">
<stop offset="0.1" stop-color="#6ABF4B"/>
<stop offset="0.3" stop-color="#63B649"/>
<stop offset="0.6" stop-color="#529F44"/>
<stop offset="0.9" stop-color="#3F873F"/>
</linearGradient>
<linearGradient id="paint6_linear" x1="2267.3" y1="512.128" x2="2005.02" y2="1368.54" gradientUnits="userSpaceOnUse">
<stop stop-color="#3F873F"/>
<stop offset="0.3" stop-color="#3F8B3D"/>
<stop offset="0.6" stop-color="#3E9637"/>
<stop offset="0.9" stop-color="#3DA92E"/>
<stop offset="1" stop-color="#3DAE2B"/>
</linearGradient>
<clipPath id="clip0">
<rect width="91.4522" height="56" fill="white"/>
</clipPath>
</defs>
</svg>
