<svg width="231" height="56" viewBox="0 0 231 56" fill="none" xmlns="http://www.w3.org/2000/svg">
<g clip-path="url(#clip0)">
<path d="M28.6918 5.09752H16.749V42.091H11.87V5.09752H0V0.72821H28.6918V5.09752Z" fill="black"/>
<path d="M51.1938 12.5254L37.5761 46.8244C35.1729 52.9415 31.7503 56 27.381 56C26.143 56 25.1235 55.8544 24.3225 55.6359V51.4123C25.342 51.7764 26.2887 51.922 27.0897 51.922C29.4928 51.922 31.2406 50.4656 32.4785 47.6255L34.8088 42.0182L23.303 12.5254H28.5462L36.5566 35.2458C36.6294 35.5371 36.8479 36.2653 37.1391 37.5033H37.2848C37.3576 37.0663 37.5761 36.3381 37.8674 35.3186L46.2419 12.5254H51.1938ZM58.9129 37.7946H58.7672V55.6359H54.0338V12.5254H58.7672V17.6957H58.9129C61.2432 13.7633 64.6658 11.7971 69.1079 11.7971C72.8947 11.7971 75.8804 13.108 77.9922 15.7295C80.104 18.3511 81.1964 21.9194 81.1964 26.3615C81.1964 31.3134 79.9584 35.2458 77.5553 38.2315C75.1521 41.2172 71.8752 42.6736 67.7243 42.6736C64.0104 42.8193 61.0247 41.1444 58.9129 37.7946ZM58.8401 25.9246V30.0754C58.8401 32.5514 59.6411 34.5904 61.2432 36.2653C62.8452 37.9402 64.8114 38.814 67.2874 38.814C70.1274 38.814 72.3849 37.7217 74.0598 35.5371C75.6619 33.3524 76.4629 30.2939 76.4629 26.3615C76.4629 23.0845 75.7347 20.463 74.2055 18.6424C72.6762 16.7491 70.6372 15.8752 68.0156 15.8752C65.2484 15.8752 63.0637 16.8219 61.3888 18.7152C59.6411 20.6086 58.8401 23.0117 58.8401 25.9246ZM110.179 28.4734H89.3524C89.4252 31.7504 90.2991 34.2991 91.974 36.1197C93.6489 37.9402 95.9792 38.814 98.9649 38.814C102.315 38.814 105.373 37.7217 108.14 35.5371V39.9792C105.519 41.8726 102.096 42.8192 97.8726 42.8192C93.7217 42.8192 90.4447 41.5084 88.0416 38.814C85.6385 36.1196 84.4733 32.3329 84.4733 27.5267C84.4733 22.9389 85.7841 19.1522 88.4057 16.3121C91.0273 13.3992 94.2315 11.9428 98.091 11.9428C101.951 11.9428 104.936 13.1808 107.048 15.7295C109.16 18.2055 110.252 21.7009 110.252 26.1431L110.179 28.4734ZM105.3 24.4682C105.3 21.7009 104.645 19.5891 103.334 18.0598C102.023 16.5306 100.203 15.8024 97.9454 15.8024C95.6879 15.8024 93.7945 16.6034 92.2653 18.2055C90.736 19.8075 89.7165 21.9194 89.3524 24.4682H105.3ZM112.51 40.6346V37.3576C115.495 39.251 118.481 40.1977 121.54 40.1977C124.744 40.1977 127.22 39.5423 128.895 38.1587C130.57 36.7751 131.371 34.9545 131.371 32.5514C131.371 30.4395 130.788 28.7646 129.696 27.4538C128.603 26.2159 126.127 24.4682 122.414 22.2835C118.19 19.8076 115.568 17.7685 114.476 16.1665C113.384 14.4916 112.801 12.5982 112.801 10.4864C112.801 7.57349 113.966 5.09754 116.224 3.05853C118.481 1.01951 121.54 0 125.326 0C127.802 0 130.278 0.43694 132.681 1.23798V4.22366C130.278 3.13133 127.657 2.54876 124.889 2.54876C122.049 2.54876 119.865 3.277 118.19 4.66062C116.515 6.11705 115.714 7.86475 115.714 10.0494C115.714 12.1612 116.296 13.8362 117.389 15.0741C118.481 16.3121 120.957 18.0598 124.671 20.1717C128.531 22.3563 131.079 24.3225 132.39 25.9974C133.701 27.6723 134.283 29.6385 134.283 31.896C134.283 35.1001 133.191 37.6489 131.006 39.6879C128.822 41.7269 125.691 42.6736 121.685 42.6736C120.229 42.6736 118.627 42.4552 116.733 42.0182C114.84 41.5813 113.456 41.2172 112.51 40.6346ZM158.897 40.7802C156.713 42.091 154.091 42.8192 151.032 42.8192C147.027 42.8192 143.75 41.4357 141.274 38.6684C138.798 35.9012 137.56 32.3329 137.56 27.818C137.56 23.1574 138.944 19.2978 141.711 16.3121C144.479 13.3264 148.047 11.7971 152.416 11.7971C154.674 11.7971 156.858 12.2341 158.97 13.1808V16.1665C156.858 14.8557 154.528 14.2003 152.052 14.2003C148.557 14.2003 145.789 15.4383 143.605 17.9142C141.42 20.3901 140.401 23.6671 140.401 27.5995C140.401 31.4591 141.42 34.5176 143.386 36.8479C145.352 39.1782 147.974 40.3433 151.178 40.3433C154.164 40.3433 156.713 39.5423 158.897 38.013V40.7802ZM176.52 15.2926C175.646 14.6372 174.627 14.3459 173.389 14.3459C171.059 14.3459 169.092 15.5839 167.563 17.987C165.961 20.3901 165.233 23.8127 165.233 28.2549V42.1639H162.611V12.5254H165.233V19.0793H165.378C166.034 16.8219 167.126 15.0741 168.583 13.8362C170.039 12.5982 171.714 11.9428 173.68 11.9428C174.772 11.9428 175.792 12.0885 176.593 12.4526V15.2926H176.52ZM180.744 5.09753C180.161 5.09753 179.651 4.87909 179.215 4.44216C178.778 4.00523 178.559 3.49547 178.559 2.84007C178.559 2.18467 178.778 1.67489 179.215 1.31078C179.651 0.946675 180.161 0.728219 180.744 0.728219C181.326 0.728219 181.836 0.946675 182.346 1.31078C182.783 1.67489 183.001 2.18467 183.001 2.84007C183.001 3.42265 182.783 4.00523 182.346 4.44216C181.836 4.87909 181.326 5.09753 180.744 5.09753ZM179.433 42.091V12.5254H182.055V42.091H179.433ZM191.157 36.8479H191.012V55.7087H188.39V12.5254H191.012V18.6424H191.157C192.25 16.4578 193.706 14.7828 195.672 13.6177C197.638 12.4525 199.823 11.87 202.153 11.87C205.94 11.87 208.853 13.1808 210.965 15.7295C213.077 18.3511 214.096 21.8466 214.096 26.2887C214.096 31.2406 212.858 35.2458 210.455 38.3043C208.052 41.3628 204.848 42.8921 200.915 42.8921C196.546 42.8193 193.269 40.8531 191.157 36.8479ZM191.012 25.8518V29.5657C191.012 32.5514 191.958 35.1002 193.779 37.212C195.672 39.3238 198.075 40.4161 201.134 40.4161C204.12 40.4161 206.596 39.1053 208.489 36.5566C210.382 33.935 211.329 30.5852 211.329 26.3615C211.329 22.6476 210.455 19.7347 208.707 17.5501C206.96 15.3654 204.702 14.2731 201.789 14.2731C198.367 14.2731 195.672 15.4383 193.779 17.7686C191.886 20.0989 191.012 22.7204 191.012 25.8518ZM230.19 41.6541C228.806 42.3095 227.495 42.6008 226.33 42.6008C221.961 42.6008 219.776 39.9792 219.776 34.736V15.0013H214.46V12.5982H219.776V4.87907L221.087 4.44216L222.398 4.0052V12.5982H230.19V15.0013H222.398V34.5176C222.398 36.5566 222.689 38.013 223.345 38.9597C224 39.9064 225.092 40.3433 226.622 40.3433C227.714 40.3433 228.879 39.9792 230.19 39.251V41.6541Z" fill="black"/>
</g>
<defs>
<clipPath id="clip0">
<rect width="230.19" height="56" fill="white"/>
</clipPath>
</defs>
</svg>
